<svg width="50" height="50" viewBox="0 0 50 50" fill="none" xmlns="http://www.w3.org/2000/svg">
<path d="M50 25C50 22.7295 45.1591 20.7441 37.9176 19.649C42.2634 13.7528 44.2839 8.92678 42.6785 7.32146C41.0732 5.71614 36.2473 7.73654 30.351 12.0824C29.2559 4.84097 27.2705 0 25 0C22.7295 0 20.7441 4.84097 19.649 12.0824C13.7528 7.73654 8.9268 5.71614 7.32146 7.32146C5.71614 8.92678 7.73654 13.7528 12.0824 19.649C4.84097 20.7441 0 22.7295 0 25C0 27.2705 4.84097 29.2559 12.0824 30.351C7.73654 36.2473 5.71614 41.0732 7.32146 42.6785C8.9268 44.2839 13.7528 42.2634 19.649 37.9176C20.7441 45.1591 22.7295 50 25 50C27.2705 50 29.2559 45.1591 30.351 37.9176C36.2473 42.2634 41.0732 44.2839 42.6785 42.6785C44.2839 41.0732 42.2634 36.2473 37.9176 30.351C45.1591 29.2559 50 27.2705 50 25Z" fill="#FBEAB0"/>
</svg>
