<svg width="50" height="50" viewBox="0 0 50 50" fill="none" xmlns="http://www.w3.org/2000/svg">
<path d="M22.9396 50L23.9011 30.2198L17.3077 48.9011L13.4615 47.3901L21.978 29.3956L8.79121 44.2308L5.76923 41.2088L20.6044 28.022L2.60989 36.5385L1.0989 32.6923L19.7802 26.0989L0 27.0604V22.9396L19.7802 24.0385L1.0989 17.3077L2.60989 13.5989L20.6044 22.1154L5.76923 8.79121L8.79121 5.90659L21.978 20.6044L13.4615 2.74725L17.3077 1.0989L23.9011 19.9176L22.9396 0H27.0604L25.9615 19.7802L32.6923 1.0989L36.4011 2.74725L27.8846 20.6044L41.2088 5.90659L44.0934 8.79121L29.3956 22.1154L47.2527 13.5989L48.9011 17.3077L30.0824 24.0385L50 22.9396V27.0604L30.0824 26.0989L48.9011 32.6923L47.2527 36.5385L29.3956 28.022L44.0934 41.2088L41.2088 44.2308L27.8846 29.3956L36.4011 47.3901L32.6923 48.9011L25.9615 30.2198L27.0604 50H22.9396Z" fill="#F8D3B9"/>
</svg>
