<svg width="50" height="50" viewBox="0 0 50 50" fill="none" xmlns="http://www.w3.org/2000/svg">
<path d="M25 50C20.0521 50 16.0156 45.9635 16.0156 41.0156C16.0156 36.849 17.8385 34.6354 21.875 30.9245C23.4375 29.4922 24.0885 28.2552 24.0885 27.0833V25.9115H22.9167C21.5495 25.9115 19.7266 27.2786 17.3828 29.9479C15.0391 32.6823 12.2396 33.9844 8.98438 33.9844C4.03646 33.9844 0 29.9479 0 25C0 20.0521 4.03646 16.0156 8.98438 16.0156C12.3047 16.0156 15.0391 17.3828 17.3177 19.987C19.5964 22.5911 21.4844 23.9583 22.9167 23.9583H24.0885V22.9167C24.0885 21.7448 23.4375 20.5078 21.875 19.0755L20.3776 17.7083C18.1641 15.6901 16.0156 13.0208 16.0156 8.98437C16.0156 4.03646 19.987 0 25 0C29.9479 0 33.9844 4.10156 33.9844 8.98437C33.9844 12.3047 32.6172 15.0391 30.013 17.3177C27.4089 19.5964 26.0417 21.4193 26.0417 22.9167V23.9583H27.0833C28.5807 23.9583 30.4688 22.5911 32.6823 19.987C34.8958 17.3177 37.6953 16.0156 41.0156 16.0156C45.9635 16.0156 50 19.987 50 25C50 29.9479 45.9635 33.9844 41.0156 33.9844C36.9141 33.9844 34.4401 31.9661 30.9245 28.125C29.4922 26.5625 28.2552 25.9115 27.0833 25.9115H26.0417V27.0833C26.0417 28.5807 27.3438 30.5339 30.013 32.6823C32.6823 34.8307 33.9844 37.6302 33.9844 41.0156C33.9844 45.9635 30.013 50 25 50Z" fill="#F8CBEC"/>
</svg>
